<svg xmlns="http://www.w3.org/2000/svg" viewBox="0 0 24 24" fill="none" stroke="currentColor" stroke-width="2" stroke-linecap="round" stroke-linejoin="round">
  <path d="M18.7 10.9c-.1-.5-.6-.9-1.2-.9-.6 0-1.1.4-1.2.9l-.5 3.1 2.3.4.6-3.5zM19.5 19.4l-1.2-3.4-2.3-.4-1.2 3.4c-.1.4.1.8.5.9.1.1.3.1.4.1h3c.5 0 .9-.4.9-.9 0-.1 0-.1-.1-.2zM15.5 10.9c-.1-.5-.6-.9-1.2-.9-.6 0-1.1.4-1.2.9l-.5 3.1 2.3.4.6-3.5zM16.3 19.4l-1.2-3.4-2.3-.4-1.2 3.4c-.1.4.1.8.5.9.1.1.3.1.4.1h3c.5 0 .9-.4.9-.9 0-.1 0-.1-.1-.2zM12.3 10.9c-.1-.5-.6-.9-1.2-.9-.6 0-1.1.4-1.2.9l-.5 3.1 2.3.4.6-3.5zM13.1 19.4l-1.2-3.4-2.3-.4-1.2 3.4c-.1.4.1.8.5.9.1.1.3.1.4.1h3c.5 0 .9-.4.9-.9 0-.1 0-.1-.1-.2z"/>
  <path d="M6.2 13.1c0-.5-.2-1-.6-1.4-.4-.4-.9-.6-1.4-.6s-1 .2-1.4.6c-.4.4-.6.9-.6 1.4s.2 1 .6 1.4c.4.4.9.6 1.4.6s1-.2 1.4-.6c.4-.4.6-.9.6-1.4zM21.8 13.1c0-.5-.2-1-.6-1.4-.4-.4-.9-.6-1.4-.6s-1 .2-1.4.6c-.4.4-.6.9-.6 1.4s.2 1 .6 1.4c.4.4.9.6 1.4.6s1-.2 1.4-.6c.4-.4.6-.9.6-1.4z"/>
</svg> 