<svg xmlns="http://www.w3.org/2000/svg" viewBox="0 0 24 24" fill="none" stroke="currentColor" stroke-width="2" stroke-linecap="round" stroke-linejoin="round">
  <path d="M17.33 11.89c-.77-.1-1.95-.14-3.33-.14-2.2 0-4.4.22-6.38.66.38-2.9 1.16-5.34 2.25-7.23.52-.88 1.05-1.56 1.57-2.05.52.49 1.05 1.17 1.57 2.05 1.01 1.73 1.74 3.95 2.16 6.62M20 16v-3a2 2 0 0 0-2-2h-1.7c-.2-.84-.46-1.59-.77-2.25-.31-.67-.67-1.28-1.08-1.83a13.77 13.77 0 0 0-2.35-2.25c-.81-.6-1.64-1.03-2.46-1.28-1.7-.53-3.37.3-5.09 1.86a13.77 13.77 0 0 0-2.35 2.25c-.41.55-.77 1.16-1.08 1.83-.31.67-.58 1.41-.77 2.25H2a2 2 0 0 0-2 2v3h20Z"/>
  <path d="M16 21h2a2 2 0 0 0 2-2v-3H4v3a2 2 0 0 0 2 2h2"/>
  <path d="M12 16v5"/>
  <path d="M12 16a2 2 0 0 0-2 2v3h4v-3a2 2 0 0 0-2-2Z"/>
</svg> 